<?xml version="1.0" encoding="iso-8859-1"?>
<!-- Generator: Adobe Illustrator 16.0.0, SVG Export Plug-In . SVG Version: 6.00 Build 0)  -->
<!DOCTYPE svg PUBLIC "-//W3C//DTD SVG 1.1//EN" "http://www.w3.org/Graphics/SVG/1.1/DTD/svg11.dtd">
<svg version="1.1" id="Capa_1" xmlns="http://www.w3.org/2000/svg" xmlns:xlink="http://www.w3.org/1999/xlink" x="0px" y="0px"
	 width="358.685px" height="358.685px" viewBox="0 0 358.685 358.685" style="enable-background:new 0 0 358.685 358.685;"
	 xml:space="preserve">
<g>
	<g>
		<g>
			<path d="M282.531,0v10.809H76.135V0H34.359v176.289h41.775v-19.584h79.777v201.98h43.232v-201.98h83.395v19.584h41.787V0H282.531
				z M70.73,10.814V156.71v14.187H39.758V5.404H70.73V10.814z M216.593,40.313L178.25,76.012l22.557,1.261
				c1.23,0.063,2.317,0.861,2.731,2.054c0.402,1.174,0.085,2.48-0.864,3.32l-54.917,49.125c-0.552,0.496-1.285,0.781-2.054,0.781
				c-0.811,0-1.585-0.327-2.17-0.91c-1.147-1.149-1.198-3.014-0.12-4.224l32.525-36.353l-31.615,1.744c0,0,0,0-0.021,0
				c-1.357,0-2.396-0.681-2.9-1.732c-0.534-1.132-0.351-2.465,0.486-3.39l46.024-51.446c0.579-0.639,1.402-1.021,2.272-1.021
				l24.26-0.228c1.279,0,2.426,0.781,2.882,1.943C217.824,38.112,217.518,39.439,216.593,40.313z M318.921,170.89h-30.973v-14.186
				V10.814v-5.41h30.973V170.89z"/>
		</g>
		<g>
			<polygon points="144.106,91.465 144.106,91.417 144.088,91.417 			"/>
		</g>
	</g>
</g>
<g>
</g>
<g>
</g>
<g>
</g>
<g>
</g>
<g>
</g>
<g>
</g>
<g>
</g>
<g>
</g>
<g>
</g>
<g>
</g>
<g>
</g>
<g>
</g>
<g>
</g>
<g>
</g>
<g>
</g>
</svg>
